<svg xmlns="http://www.w3.org/2000/svg" width="512" height="512"><path fill="#DAD4C2" d="M0 0h512v512H0z"/><path fill="#FEFEFE" d="m225.535 171.867 3.201-.004 3.327.012 3.337-.012 6.12.008C244 172 244 172 247 173v20l-7-1c-11.462-.686-21.163-.044-30.309 7.383-5.38 5.143-6.872 10.327-7.066 17.68-.02 6.929.95 12.442 5.375 17.937 7.626 6.814 16.299 9.433 26.313 9.512l2.588.054c2.7.054 5.4.088 8.099.121q2.764.05 5.527.104c4.491.085 8.982.152 13.473.209l.427-2.336q.973-5.301 1.948-10.601l.672-3.674c1.197-6.496 2.467-12.953 3.953-19.389h17v36h25v19h-26v75l-31.062.188-9.712.082q-3.88.014-7.761.023l-3.955.046c-18.152.006-35.66-3.91-49.51-16.339-9.18-10.118-11.846-21.709-11.316-35.008.575-8.802 3.429-16.337 9.316-22.992 5.989-5.14 12.869-8.707 20-12l-2.379-1.285C188.975 245.213 182.28 238.839 178 226c-1.234-12.708-.717-24.083 6.95-34.7 8.46-10.162 18.411-15.075 31.05-18.3l1.832-.537c2.612-.558 5.032-.593 7.703-.596"/><path fill="#FEFEFD" d="M344 174h26l1 85 11-13 5.625-6.625a736 736 0 0 0 9.813-11.812c3.957-4.864 8.027-9.622 12.12-14.371 3.773-4.387 7.445-8.847 11.09-13.34 3.246-3.936 6.578-7.796 9.928-11.643l1.432-1.654 1.49-1.68c1.59-1.894 1.59-1.894 2.92-4.288 1.678-2.692 3.095-4.602 5.582-6.587 4.86-1.094 9.489-.855 14.438-.562 1.303.04 2.607.08 3.95.123 3.208.105 6.408.253 9.612.439-2.454 4.219-5.29 7.839-8.5 11.5l-3.238 3.738-1.651 1.901a989 989 0 0 0-7.298 8.548l-1.377 1.627c-3.59 4.253-7.11 8.558-10.623 12.874a755 755 0 0 1-7.813 9.312c-3.538 4.173-7.07 8.352-10.562 12.563l-2.16 2.597c-2.28 2.968-2.28 2.968-3.778 6.34.908 2.372.908 2.372 2.629 4.719l1.867 2.793 2.067 2.988 4.218 6.277 2.16 3.18c2.93 4.332 5.78 8.715 8.622 13.106l1.594 2.451a2002 2002 0 0 1 11.718 18.298 2390 2390 0 0 0 15.313 23.813l1.927 2.964 1.803 2.763 1.587 2.432a78 78 0 0 0 3.188 4.382C473 337 473 337 473 339c-24.325 3.144-24.325 3.144-31.44-1.64-4.137-4.538-6.645-9.983-9.184-15.525-2.242-4.62-5.13-8.775-8.001-13.022a1441 1441 0 0 1-3.25-5l-1.586-2.442a11292 11292 0 0 1-11.148-17.22q-3.788-5.858-7.579-11.714l-2.792-4.316L396 265c-4.239 3.471-7.986 6.913-11.375 11.25l-2.023 2.578-1.133 1.506C380 282 380 282 377.743 283.74c-4.804 4.114-6.867 7.222-7.561 13.469-.401 6.305-.328 12.602-.245 18.916q-.005 3.329-.021 6.656c-.026 5.41.03 10.808.084 16.219h-26zM113 174h26c.09 16.465.164 32.929.207 49.394q.028 11.469.095 22.938.06 10.004.074 20.009c.006 3.526.018 7.053.047 10.58.033 3.95.033 7.902.031 11.853l.044 3.485c-.065 12.852-3.718 25.35-12.533 34.96-10.39 9.822-23.228 14.383-37.402 14.094l-2.793-.04c-14.573-.31-26.909-3.622-37.797-13.937C39.173 315.732 38.76 303.322 39 289h24l.25 7.5c.436 8.911.436 8.911 4.75 16.5 7.582 6.314 13.63 7.419 23.375 7.348 6.531-.627 11.399-3.179 16.063-7.723 4.54-7.627 5.005-13.45 4.994-22.261l.031-3.816c.028-3.436.037-6.871.043-10.307.01-3.596.036-7.193.06-10.79.044-6.803.072-13.606.095-20.41.028-7.748.071-15.497.117-23.245.092-15.932.162-31.864.222-47.796"/><path fill="#DAD4C2" d="M243.688 263.75 264 264v56l-19.375.188-6.052.082c-13.523.11-24.058-.893-34.573-10.27-6.183-7.474-6.82-15.545-6-25 1.733-7.495 6.566-12.956 13-17 10.13-5.625 21.493-4.445 32.688-4.25"/><path d="M511 471h1v41h-41c3.222-1.611 6.335-2.904 9.688-4.187 12.6-5.252 22.083-14.614 27.347-27.215A86 86 0 0 0 511 471M0 471c1.611 3.222 2.904 6.335 4.188 9.688 5.25 12.6 14.613 22.083 27.214 27.347A86 86 0 0 0 41 511v1H0zM471 0h41v41c-1.611-3.222-2.904-6.335-4.187-9.687-5.252-12.6-14.614-22.084-27.215-27.348A86 86 0 0 0 471 1zM0 0h41c-3.222 1.611-6.335 2.904-9.687 4.188C18.713 9.438 9.229 18.8 3.965 31.402A86 86 0 0 0 1 41H0z"/></svg>